<?xml version="1.0" encoding="utf-8"?>
<!DOCTYPE svg PUBLIC "-//W3C//DTD SVG 20010904//EN" "http://www.w3.org/TR/2001/REC-SVG-20010904/DTD/svg10.dtd">
<svg version="1.0" width="33pt" height="33pt" viewBox="0 0 33 33" preserveAspectRatio="xMidYMid meet" xmlns="http://www.w3.org/2000/svg">
  <g transform="translate(0,33)scale(.075,.075)">
    <path id="path1" d="M 42 -419 c -17 12 -35 32 -38 44 -14 57 50 169 145 258 66 61 164 117 204 117 26 0 73 -40 83 -72 8 -25 -24 -60 -79 -87 -36 -18 -43 -19 -69 -5 -34 18 -51 11 -101 -46 -37 -40 -45 -64 -27 -75 25 -16 5 -77 -44 -133 -24 -27 -32 -27 -74 -1 z " />
  </g>
</svg>