<?xml version="1.0" encoding="utf-8"?>
<!DOCTYPE svg PUBLIC "-//W3C//DTD SVG 20010904//EN" "http://www.w3.org/TR/2001/REC-SVG-20010904/DTD/svg10.dtd">
<svg version="1.0" width="33pt" height="33pt" viewBox="0 0 33 33" preserveAspectRatio="xMidYMid meet" xmlns="http://www.w3.org/2000/svg">
  <g transform="translate(0,33)scale(.075,.075)">
    <path id="path1" d="M 145 -425 c -76 26 -145 128 -145 211 0 76 54 165 121 200 37 19 39 18 39 -11 0 -20 -5 -25 -24 -25 -15 0 -33 -12 -51 -36 -34 -44 -25 -57 14 -20 31 30 64 32 69 3 2 -11 -3 -17 -16 -17 -11 0 -32 -14 -47 -32 -28 -33 -29 -54 -8 -153 7 -33 12 -39 28 -35 26 6 164 6 190 0 16 -4 21 2 28 35 22 104 21 123 -11 155 -17 16 -38 30 -46 30 -14 0 -15 9 -10 58 4 31 8 58 9 60 8 9 65 -31 98 -67 80 -89 75 -212 -13 -302 -64 -67 -139 -84 -225 -54 z " />
  </g>
</svg>