<?xml version="1.0" encoding="utf-8"?>
<!DOCTYPE svg PUBLIC "-//W3C//DTD SVG 20010904//EN" "http://www.w3.org/TR/2001/REC-SVG-20010904/DTD/svg10.dtd">
<svg version="1.0" width="42pt" height="33pt" viewBox="0 0 42 33" preserveAspectRatio="xMidYMid meet" xmlns="http://www.w3.org/2000/svg">
  <g transform="translate(0,33)scale(.075,.075)">
    <path id="path1" d="M 25 -415 c -25 24 -25 27 -25 195 0 168 0 171 25 195 l 24 25 231 0 231 0 24 -25 c 25 -24 25 -27 25 -195 0 -168 0 -171 -25 -195 l -24 -25 -231 0 -231 0 -24 25 z m 175 126 l 80 62 81 -63 c 82 -63 114 -77 114 -51 0 14 -178 161 -195 161 -9 0 -187 -137 -195 -150 -9 -15 5 -32 21 -26 8 3 50 33 94 67 z " />
  </g>
</svg>